<svg width="78" height="78" viewBox="0 0 78 78" fill="none" xmlns="http://www.w3.org/2000/svg">
<circle cx="39" cy="39" r="36" fill="#E5F1FF" stroke="white" stroke-width="6"/>
<path d="M32.041 46.2497C30.6202 46.2497 29.4706 47.4122 29.4706 48.833C29.4706 50.2538 30.6202 51.4163 32.041 51.4163C33.4618 51.4163 34.6243 50.2538 34.6243 48.833C34.6243 47.4122 33.4618 46.2497 32.041 46.2497ZM24.291 25.583V28.1663H26.8743L31.5243 37.9701L29.7806 41.1347C29.5739 41.4963 29.4577 41.9226 29.4577 42.3747C29.4577 43.7955 30.6202 44.958 32.041 44.958H47.541V42.3747H32.5835C32.4027 42.3747 32.2606 42.2326 32.2606 42.0518L32.2993 41.8968L33.4619 39.7913H43.0848C44.0535 39.7913 44.906 39.2618 45.3452 38.4609L49.9693 30.078C50.0727 29.8972 50.1244 29.6776 50.1244 29.458C50.1244 28.7476 49.5431 28.1663 48.8327 28.1663H29.7289L28.5148 25.583H24.291ZM44.9577 46.2497C43.5368 46.2497 42.3873 47.4122 42.3873 48.833C42.3873 50.2538 43.5368 51.4163 44.9577 51.4163C46.3785 51.4163 47.541 50.2538 47.541 48.833C47.541 47.4122 46.3785 46.2497 44.9577 46.2497Z" fill="#716969"/>
</svg>
