<svg width="79" height="80" viewBox="0 0 79 80" fill="none" xmlns="http://www.w3.org/2000/svg">
<path d="M76 40C76 60.4702 59.6229 77 39.5 77C19.3771 77 3 60.4702 3 40C3 19.5298 19.3771 3 39.5 3C59.6229 3 76 19.5298 76 40Z" fill="#FFE5EE" stroke="white" stroke-width="6"/>
<path d="M33.041 47.2497C31.6202 47.2497 30.4706 48.4122 30.4706 49.833C30.4706 51.2538 31.6202 52.4163 33.041 52.4163C34.4618 52.4163 35.6243 51.2538 35.6243 49.833C35.6243 48.4122 34.4618 47.2497 33.041 47.2497ZM25.291 26.583V29.1663H27.8743L32.5243 38.9701L30.7806 42.1347C30.5739 42.4963 30.4577 42.9226 30.4577 43.3747C30.4577 44.7955 31.6202 45.958 33.041 45.958H48.541V43.3747H33.5835C33.4027 43.3747 33.2606 43.2326 33.2606 43.0518L33.2993 42.8968L34.4619 40.7913H44.0848C45.0535 40.7913 45.906 40.2618 46.3452 39.4609L50.9693 31.078C51.0727 30.8972 51.1244 30.6776 51.1244 30.458C51.1244 29.7476 50.5431 29.1663 49.8327 29.1663H30.7289L29.5148 26.583H25.291ZM45.9577 47.2497C44.5369 47.2497 43.3873 48.4122 43.3873 49.833C43.3873 51.2538 44.5369 52.4163 45.9577 52.4163C47.3785 52.4163 48.541 51.2538 48.541 49.833C48.541 48.4122 47.3785 47.2497 45.9577 47.2497Z" fill="#716969"/>
</svg>
